<?xml version="1.0" encoding="iso-8859-1"?>
<!-- Generator: Adobe Illustrator 19.0.0, SVG Export Plug-In . SVG Version: 6.00 Build 0)  -->
<svg version="1.1" id="Layer_1" xmlns="http://www.w3.org/2000/svg" xmlns:xlink="http://www.w3.org/1999/xlink" x="0px" y="0px"
	 viewBox="0 0 504.32 504.32" style="enable-background:new 0 0 504.32 504.32;" xml:space="preserve">
<g transform="translate(3 1)">
	<circle style="fill:#ECF4F7;" cx="223.133" cy="277.187" r="204.8"/>
	<path style="fill:#80D6FA;" d="M470.6,123.587c14.507,0,25.6,11.093,25.6,25.6c0,14.507-11.093,25.6-25.6,25.6
		c-9.387,0-17.067-4.267-21.333-11.947c-2.56-4.267-4.267-8.533-4.267-13.653C445,134.68,456.093,123.587,470.6,123.587"/>
	<path style="fill:#FFE079;" d="M470.6,4.12c14.507,0,25.6,11.093,25.6,25.6s-11.093,25.6-25.6,25.6
		c-7.68,0-14.507-3.413-19.627-9.387C447.56,41.666,445,35.693,445,29.72C445,15.213,456.093,4.12,470.6,4.12"/>
</g>
<path style="fill:#51565F;" d="M21.333,504.32c-0.853,0-2.56-0.853-3.413-1.707c-0.853-0.853-0.853-1.707-0.853-2.56
	c0-0.853,0.853-2.56,1.707-3.413l77.653-60.587l0,0l20.48-15.36c1.707-1.707,4.267-0.853,5.973,0.853
	c0.853,0.853,0.853,1.707,0.853,2.56c0,0.853-0.853,2.56-1.707,3.413l-16.213,12.8c34.133,25.6,75.947,39.253,119.467,39.253
	c2.56,0,4.267,1.707,4.267,4.267s-1.707,4.267-4.267,4.267c-46.933,0-90.453-14.507-126.293-42.667l-75.093,58.88
	C23.04,504.32,22.187,504.32,21.333,504.32z M260.267,484.693c-1.707,0-3.413-1.707-4.267-3.413c0-0.853,0-1.707,0-2.56
	c28.16-79.36,26.453-165.547-1.707-241.493c-0.853,0-0.853,0-1.707,0c-81.92,0-161.28,28.16-224.427,80.213
	c2.56,12.8,5.973,24.747,11.093,36.693c0.853,2.56,0,4.267-2.56,5.973c-2.56,0.853-4.267,0-5.973-2.56
	c-10.24-24.747-15.36-51.2-15.36-78.507c0-6.827,0-14.507,0.853-21.333v-0.853c2.56-25.6,10.24-50.347,22.187-73.387l0.853-0.853
	l0.853-0.853c46.08-26.453,98.987-41.813,155.307-45.227c-12.8-15.36-27.307-30.72-42.667-44.373
	c-25.6,10.24-49.493,25.6-69.973,45.227c-1.707,1.707-4.267,1.707-5.973,0s-1.707-4.267,0-5.973
	c39.253-39.253,92.16-61.44,147.627-61.44c20.48,0,41.813,3.413,60.587,9.387c0,0,0,0,0.853,0
	c43.52,13.653,82.773,40.96,110.08,79.36c1.707,1.707,0.853,4.267-0.853,5.973c-1.707,1.707-4.267,0.853-5.973-0.853
	c-23.04-33.28-55.467-58.027-92.16-71.68c75.093,98.987,94.72,227.84,52.053,344.747c46.933-36.693,75.947-93.867,75.947-157.867
	c0-26.453-5.12-52.907-15.36-76.8l-20.48,16.213c-1.707,1.707-4.267,0.853-5.973-0.853c-0.853-0.853-0.853-1.707-0.853-2.56
	c0-0.853,0.853-2.56,1.707-3.413L408.747,192c0,0,0,0,0.853,0l35.84-28.16c-1.707-3.413-2.56-7.68-2.56-12.8
	c0-16.213,13.653-29.867,29.867-29.867s29.867,13.653,29.867,29.867s-13.653,29.867-29.867,29.867
	c-8.533,0-17.067-4.267-22.187-10.24l-33.28,25.6c11.093,26.453,17.067,53.76,17.067,82.773
	C435.2,380.587,361.813,467.627,260.267,484.693C261.12,484.693,261.12,484.693,260.267,484.693z M261.973,232.107
	c29.013,76.8,31.573,162.133,4.267,242.347c10.24-1.707,19.627-5.12,28.16-7.68c53.76-133.973,19.627-289.28-85.333-388.267
	c-16.213,0.853-31.573,4.267-46.933,9.387c17.067,14.507,31.573,30.72,45.227,47.787l0.853,0.853
	c11.093,14.507,21.333,29.867,29.867,46.08c0.853,0.853,0.853,0.853,0.853,1.707c7.68,14.507,15.36,29.867,21.333,45.227
	C261.973,230.4,261.973,231.253,261.973,232.107z M221.867,77.653c100.693,99.84,133.973,251.733,84.48,384.853
	c11.093-5.12,21.333-10.24,31.573-17.067c49.493-120.32,29.013-257.707-54.613-359.253C263.68,80.213,243.2,77.653,221.867,77.653z
	 M25.6,278.187c0,9.387,0.853,19.627,1.707,29.013c63.147-50.347,142.507-78.507,224.427-78.507c-5.12-12.8-11.093-25.6-17.92-38.4
	c-74.24,0.853-147.627,25.6-207.36,69.12C25.6,265.387,25.6,272.213,25.6,278.187z M46.933,187.733
	c-9.387,18.773-16.213,39.253-19.627,59.733c58.027-40.96,128.853-64.853,201.387-66.56c-7.68-12.8-16.213-25.6-25.6-38.4
	C147.627,145.92,93.867,161.28,46.933,187.733z M473.6,128.853c-11.947,0-21.333,9.387-21.333,21.333
	c0,11.947,9.387,21.333,21.333,21.333c11.947,0,21.333-9.387,21.333-21.333C494.933,138.24,485.547,128.853,473.6,128.853z
	 M4.267,436.053c-0.853,0-2.56-0.853-3.413-1.707S0,432.64,0,431.787c0-0.853,0.853-2.56,1.707-3.413l47.787-41.813
	c0-0.853,0.853-2.56,1.707-2.56c0.853-0.853,1.707-0.853,2.56-0.853l51.2-44.373c1.707-1.707,4.267-1.707,5.973,0
	c0.853,0.853,0.853,1.707,0.853,2.56c0,0.853-0.853,2.56-1.707,3.413l-50.347,43.52l19.627,25.6
	c1.707,1.707,0.853,4.267-0.853,5.973c-1.707,1.707-4.267,1.707-5.973,0c-7.68-8.533-14.507-16.213-19.627-24.747L6.827,435.2
	C5.973,436.053,5.12,436.053,4.267,436.053z M388.267,107.52c-0.853,0-2.56-0.853-3.413-1.707C384,104.96,384,104.106,384,103.253
	c0-0.853,0.853-2.56,1.707-3.413l63.147-53.76c-2.56-4.267-4.267-10.24-4.267-16.213C444.587,13.653,458.24,0,474.453,0
	s29.867,13.653,29.867,29.867s-13.653,29.867-29.867,29.867c-7.68,0-14.507-2.56-19.627-7.68l-63.147,53.76
	C389.973,107.52,389.12,107.52,388.267,107.52z M473.6,9.387c-11.947,0-21.333,9.387-21.333,21.333s9.387,21.333,21.333,21.333
	c11.947,0,21.333-9.387,21.333-21.333S485.547,9.387,473.6,9.387z"/>
<g>
</g>
<g>
</g>
<g>
</g>
<g>
</g>
<g>
</g>
<g>
</g>
<g>
</g>
<g>
</g>
<g>
</g>
<g>
</g>
<g>
</g>
<g>
</g>
<g>
</g>
<g>
</g>
<g>
</g>
</svg>
